<?xml version="1.0" encoding="UTF-8"?>
<svg xmlns="http://www.w3.org/2000/svg" xmlns:xlink="http://www.w3.org/1999/xlink" width="68px" height="68px" viewBox="0 0 68 68" version="1.1">
<g id="surface1">
<path style=" stroke:none;fill-rule:evenodd;fill:rgb(10.588235%,12.156863%,13.725491%);fill-opacity:1;" d="M 34 0 C 15.214844 0 0 15.214844 0 34 C 0 49.046875 9.734375 61.753906 23.246094 66.257812 C 24.949219 66.554688 25.585938 65.535156 25.585938 64.640625 C 25.585938 63.835938 25.542969 61.15625 25.542969 58.308594 C 17 59.882812 14.789062 56.226562 14.109375 54.316406 C 13.726562 53.335938 12.070312 50.320312 10.625 49.511719 C 9.433594 48.875 7.734375 47.300781 10.582031 47.261719 C 13.261719 47.21875 15.171875 49.726562 15.808594 50.746094 C 18.871094 55.886719 23.757812 54.441406 25.710938 53.550781 C 26.011719 51.339844 26.902344 49.851562 27.878906 49.003906 C 20.316406 48.152344 12.410156 45.21875 12.410156 32.214844 C 12.410156 28.515625 13.726562 25.457031 15.894531 23.078125 C 15.554688 22.226562 14.363281 18.742188 16.234375 14.066406 C 16.234375 14.066406 19.082031 13.175781 25.585938 17.550781 C 28.304688 16.789062 31.195312 16.40625 34.085938 16.40625 C 36.976562 16.40625 39.863281 16.789062 42.585938 17.550781 C 49.085938 13.132812 51.933594 14.066406 51.933594 14.066406 C 53.804688 18.742188 52.613281 22.226562 52.273438 23.078125 C 54.441406 25.457031 55.761719 28.476562 55.761719 32.214844 C 55.761719 45.261719 47.8125 48.152344 40.246094 49.003906 C 41.480469 50.066406 42.542969 52.105469 42.542969 55.292969 C 42.542969 59.839844 42.5 63.496094 42.5 64.640625 C 42.5 65.535156 43.136719 66.597656 44.835938 66.257812 C 58.265625 61.753906 68 49.003906 68 34 C 68 15.214844 52.785156 0 34 0 Z M 34 0 "/>
</g>
</svg>
